<svg width="1171" height="1861" viewBox="0 0 1171 1861" fill="none" xmlns="http://www.w3.org/2000/svg">
<path fill-rule="evenodd" clip-rule="evenodd" d="M1181.75 1007.69C1181.75 993.565 1193.23 982.096 1207.37 982.096C1221.51 982.096 1233 993.565 1233 1007.69C1233 1021.81 1221.51 1033.28 1207.37 1033.28C1193.23 1033.28 1181.75 1021.81 1181.75 1007.69ZM1186.02 1084.87C1186.02 1073.1 1195.59 1063.55 1207.37 1063.55C1219.16 1063.55 1228.73 1073.1 1228.73 1084.87C1228.73 1096.65 1219.16 1106.2 1207.37 1106.2C1195.59 1106.2 1186.02 1096.65 1186.02 1084.87ZM1188.15 1239.25C1188.15 1228.65 1196.77 1220.05 1207.37 1220.05C1217.98 1220.05 1226.59 1228.65 1226.59 1239.25C1226.59 1249.84 1217.98 1258.44 1207.37 1258.44C1196.77 1258.44 1188.15 1249.84 1188.15 1239.25ZM1190.29 853.307C1190.29 843.893 1197.94 836.248 1207.37 836.248C1216.8 836.248 1224.46 843.893 1224.46 853.307C1224.46 862.725 1216.8 870.37 1207.37 870.37C1197.94 870.37 1190.29 862.725 1190.29 853.307ZM1192.43 930.495C1192.43 922.254 1199.12 915.566 1207.37 915.566C1215.62 915.566 1222.32 922.254 1222.32 930.495C1222.32 938.735 1215.62 945.424 1207.37 945.424C1199.12 945.424 1192.43 938.735 1192.43 930.495ZM1192.43 1316.43C1192.43 1308.19 1199.12 1301.5 1207.37 1301.5C1215.62 1301.5 1222.32 1308.19 1222.32 1316.43C1222.32 1324.67 1215.62 1331.36 1207.37 1331.36C1199.12 1331.36 1192.43 1324.67 1192.43 1316.43ZM1194.56 1702.36C1194.56 1695.3 1200.3 1689.57 1207.37 1689.57C1214.45 1689.57 1220.19 1695.3 1220.19 1702.36C1220.19 1709.42 1214.45 1715.16 1207.37 1715.16C1200.3 1715.16 1194.56 1709.42 1194.56 1702.36ZM1196.7 1393.62C1196.7 1387.73 1201.48 1382.95 1207.37 1382.95C1213.27 1382.95 1218.05 1387.73 1218.05 1393.62C1218.05 1399.5 1213.27 1404.28 1207.37 1404.28C1201.48 1404.28 1196.7 1399.5 1196.7 1393.62ZM1196.7 698.936C1196.7 693.054 1201.48 688.276 1207.37 688.276C1213.27 688.276 1218.05 693.054 1218.05 698.936C1218.05 704.823 1213.27 709.6 1207.37 709.6C1201.48 709.6 1196.7 704.823 1196.7 698.936ZM1196.7 621.752C1196.7 615.866 1201.48 611.088 1207.37 611.088C1213.27 611.088 1218.05 615.866 1218.05 621.752C1218.05 627.635 1213.27 632.413 1207.37 632.413C1201.48 632.413 1196.7 627.635 1196.7 621.752ZM1196.7 1162.06C1196.7 1156.17 1201.48 1151.4 1207.37 1151.4C1213.27 1151.4 1218.05 1156.17 1218.05 1162.06C1218.05 1167.95 1213.27 1172.72 1207.37 1172.72C1201.48 1172.72 1196.7 1167.95 1196.7 1162.06ZM1198.83 235.823C1198.83 231.114 1202.66 227.29 1207.37 227.29C1212.09 227.29 1215.92 231.114 1215.92 235.823C1215.92 240.529 1212.09 244.353 1207.37 244.353C1202.66 244.353 1198.83 240.529 1198.83 235.823ZM1200.97 544.565C1200.97 541.033 1203.84 538.166 1207.37 538.166C1210.91 538.166 1213.78 541.033 1213.78 544.565C1213.78 548.097 1210.91 550.964 1207.37 550.964C1203.84 550.964 1200.97 548.097 1200.97 544.565ZM1200.97 776.123C1200.97 772.592 1203.84 769.724 1207.37 769.724C1210.91 769.724 1213.78 772.592 1213.78 776.123C1213.78 779.655 1210.91 782.519 1207.37 782.519C1203.84 782.519 1200.97 779.655 1200.97 776.123ZM1203.1 1470.8C1203.1 1468.45 1205.02 1466.54 1207.37 1466.54C1209.73 1466.54 1211.64 1468.45 1211.64 1470.8C1211.64 1473.16 1209.73 1475.07 1207.37 1475.07C1205.02 1475.07 1203.1 1473.16 1203.1 1470.8ZM1104.06 1084.87C1104.06 1068.64 1117.26 1055.46 1133.51 1055.46C1149.77 1055.46 1162.97 1068.64 1162.97 1084.87C1162.97 1101.11 1149.77 1114.29 1133.51 1114.29C1117.26 1114.29 1104.06 1101.11 1104.06 1084.87ZM1110.02 930.495C1110.02 917.548 1120.55 907.036 1133.51 907.036C1146.48 907.036 1157 917.548 1157 930.495C1157 943.441 1146.48 953.953 1133.51 953.953C1120.55 953.953 1110.02 943.441 1110.02 930.495ZM1114.29 1007.69C1114.29 997.094 1122.91 988.495 1133.51 988.495C1144.12 988.495 1152.73 997.094 1152.73 1007.69C1152.73 1018.28 1144.12 1026.88 1133.51 1026.88C1122.91 1026.88 1114.29 1018.28 1114.29 1007.69ZM1114.29 1162.06C1114.29 1151.47 1122.91 1142.87 1133.51 1142.87C1144.12 1142.87 1152.73 1151.47 1152.73 1162.06C1152.73 1172.65 1144.12 1181.25 1133.51 1181.25C1122.91 1181.25 1114.29 1172.65 1114.29 1162.06ZM1114.29 1316.43C1114.29 1305.84 1122.91 1297.24 1133.51 1297.24C1144.12 1297.24 1152.73 1305.84 1152.73 1316.43C1152.73 1327.03 1144.12 1335.63 1133.51 1335.63C1122.91 1335.63 1114.29 1327.03 1114.29 1316.43ZM1116.43 1393.62C1116.43 1384.2 1124.08 1376.56 1133.51 1376.56C1142.94 1376.56 1150.6 1384.2 1150.6 1393.62C1150.6 1403.03 1142.94 1410.68 1133.51 1410.68C1124.08 1410.68 1116.43 1403.03 1116.43 1393.62ZM1116.43 544.565C1116.43 535.151 1124.08 527.505 1133.51 527.505C1142.94 527.505 1150.6 535.151 1150.6 544.565C1150.6 553.983 1142.94 561.625 1133.51 561.625C1124.08 561.625 1116.43 553.983 1116.43 544.565ZM1118.56 698.936C1118.56 690.699 1125.26 684.007 1133.51 684.007C1141.76 684.007 1148.46 690.699 1148.46 698.936C1148.46 707.177 1141.76 713.865 1133.51 713.865C1125.26 713.865 1118.56 707.177 1118.56 698.936ZM1118.56 853.307C1118.56 845.07 1125.26 838.382 1133.51 838.382C1141.76 838.382 1148.46 845.07 1148.46 853.307C1148.46 861.548 1141.76 868.236 1133.51 868.236C1125.26 868.236 1118.56 861.548 1118.56 853.307ZM1120.7 1239.25C1120.7 1232.18 1126.44 1226.45 1133.51 1226.45C1140.59 1226.45 1146.33 1232.18 1146.33 1239.25C1146.33 1246.31 1140.59 1252.04 1133.51 1252.04C1126.44 1252.04 1120.7 1246.31 1120.7 1239.25ZM1122.84 235.823C1122.84 229.937 1127.62 225.159 1133.51 225.159C1139.41 225.159 1144.19 229.937 1144.19 235.823C1144.19 241.706 1139.41 246.484 1133.51 246.484C1127.62 246.484 1122.84 241.706 1122.84 235.823ZM1122.84 776.123C1122.84 770.237 1127.62 765.46 1133.51 765.46C1139.41 765.46 1144.19 770.237 1144.19 776.123C1144.19 782.006 1139.41 786.788 1133.51 786.788C1127.62 786.788 1122.84 782.006 1122.84 776.123ZM1124.97 621.752C1124.97 617.043 1128.8 613.219 1133.51 613.219C1138.23 613.219 1142.05 617.043 1142.05 621.752C1142.05 626.458 1138.23 630.282 1133.51 630.282C1128.8 630.282 1124.97 626.458 1124.97 621.752ZM1124.97 467.378C1124.97 462.672 1128.8 458.848 1133.51 458.848C1138.23 458.848 1142.05 462.672 1142.05 467.378C1142.05 472.087 1138.23 475.911 1133.51 475.911C1128.8 475.911 1124.97 472.087 1124.97 467.378ZM1124.97 313.007C1124.97 308.298 1128.8 304.477 1133.51 304.477C1138.23 304.477 1142.05 308.298 1142.05 313.007C1142.05 317.716 1138.23 321.537 1133.51 321.537C1128.8 321.537 1124.97 317.716 1124.97 313.007ZM1127.11 1547.99C1127.11 1544.46 1129.98 1541.59 1133.51 1541.59C1137.05 1541.59 1139.92 1544.46 1139.92 1547.99C1139.92 1551.52 1137.05 1554.39 1133.51 1554.39C1129.98 1554.39 1127.11 1551.52 1127.11 1547.99ZM1129.24 1625.18C1129.24 1622.82 1131.16 1620.91 1133.51 1620.91C1135.87 1620.91 1137.78 1622.82 1137.78 1625.18C1137.78 1627.53 1135.87 1629.44 1133.51 1629.44C1131.16 1629.44 1129.24 1627.53 1129.24 1625.18ZM1129.24 1779.55C1129.24 1777.19 1131.16 1775.28 1133.51 1775.28C1135.87 1775.28 1137.78 1777.19 1137.78 1779.55C1137.78 1781.9 1135.87 1783.81 1133.51 1783.81C1131.16 1783.81 1129.24 1781.9 1129.24 1779.55ZM1129.24 1856.73C1129.24 1854.38 1131.16 1852.47 1133.51 1852.47C1135.87 1852.47 1137.78 1854.38 1137.78 1856.73C1137.78 1859.09 1135.87 1861 1133.51 1861C1131.16 1861 1129.24 1859.09 1129.24 1856.73ZM1129.24 81.4486C1129.24 79.0977 1131.16 77.1837 1133.51 77.1837C1135.87 77.1837 1137.78 79.0977 1137.78 81.4486C1137.78 83.8032 1135.87 85.7171 1133.51 85.7171C1131.16 85.7171 1129.24 83.8032 1129.24 81.4486ZM1040.43 544.565C1040.43 533.973 1049.05 525.371 1059.65 525.371C1070.26 525.371 1078.87 533.973 1078.87 544.565C1078.87 555.157 1070.26 563.759 1059.65 563.759C1049.05 563.759 1040.43 555.157 1040.43 544.565ZM1040.43 1162.06C1040.43 1151.47 1049.05 1142.87 1059.65 1142.87C1070.26 1142.87 1078.87 1151.47 1078.87 1162.06C1078.87 1172.65 1070.26 1181.25 1059.65 1181.25C1049.05 1181.25 1040.43 1172.65 1040.43 1162.06ZM1040.43 853.307C1040.43 842.715 1049.05 834.117 1059.65 834.117C1070.26 834.117 1078.87 842.715 1078.87 853.307C1078.87 863.903 1070.26 872.501 1059.65 872.501C1049.05 872.501 1040.43 863.903 1040.43 853.307ZM1040.43 930.495C1040.43 919.903 1049.05 911.301 1059.65 911.301C1070.26 911.301 1078.87 919.903 1078.87 930.495C1078.87 941.086 1070.26 949.688 1059.65 949.688C1049.05 949.688 1040.43 941.086 1040.43 930.495ZM1042.57 1547.99C1042.57 1538.57 1050.23 1530.93 1059.65 1530.93C1069.08 1530.93 1076.74 1538.57 1076.74 1547.99C1076.74 1557.4 1069.08 1565.05 1059.65 1565.05C1050.23 1565.05 1042.57 1557.4 1042.57 1547.99ZM1044.71 1084.87C1044.71 1076.64 1051.4 1069.95 1059.65 1069.95C1067.91 1069.95 1074.6 1076.64 1074.6 1084.87C1074.6 1093.11 1067.91 1099.8 1059.65 1099.8C1051.4 1099.8 1044.71 1093.11 1044.71 1084.87ZM1044.71 467.378C1044.71 459.14 1051.4 452.453 1059.65 452.453C1067.91 452.453 1074.6 459.14 1074.6 467.378C1074.6 475.619 1067.91 482.307 1059.65 482.307C1051.4 482.307 1044.71 475.619 1044.71 467.378ZM1044.71 1007.69C1044.71 999.448 1051.4 992.76 1059.65 992.76C1067.91 992.76 1074.6 999.448 1074.6 1007.69C1074.6 1015.93 1067.91 1022.62 1059.65 1022.62C1051.4 1022.62 1044.71 1015.93 1044.71 1007.69ZM1046.84 698.936C1046.84 691.876 1052.58 686.142 1059.65 686.142C1066.73 686.142 1072.47 691.876 1072.47 698.936C1072.47 706 1066.73 711.735 1059.65 711.735C1052.58 711.735 1046.84 706 1046.84 698.936ZM1048.98 1393.62C1048.98 1387.73 1053.76 1382.95 1059.65 1382.95C1065.55 1382.95 1070.33 1387.73 1070.33 1393.62C1070.33 1399.5 1065.55 1404.28 1059.65 1404.28C1053.76 1404.28 1048.98 1399.5 1048.98 1393.62ZM1051.11 1702.36C1051.11 1697.65 1054.94 1693.83 1059.65 1693.83C1064.37 1693.83 1068.2 1697.65 1068.2 1702.36C1068.2 1707.07 1064.37 1710.89 1059.65 1710.89C1054.94 1710.89 1051.11 1707.07 1051.11 1702.36ZM1053.25 1239.25C1053.25 1235.72 1056.12 1232.85 1059.65 1232.85C1063.19 1232.85 1066.06 1235.72 1066.06 1239.25C1066.06 1242.78 1063.19 1245.64 1059.65 1245.64C1056.12 1245.64 1053.25 1242.78 1053.25 1239.25ZM1053.25 1470.8C1053.25 1467.27 1056.12 1464.41 1059.65 1464.41C1063.19 1464.41 1066.06 1467.27 1066.06 1470.8C1066.06 1474.33 1063.19 1477.2 1059.65 1477.2C1056.12 1477.2 1053.25 1474.33 1053.25 1470.8ZM1053.25 1316.43C1053.25 1312.9 1056.12 1310.03 1059.65 1310.03C1063.19 1310.03 1066.06 1312.9 1066.06 1316.43C1066.06 1319.96 1063.19 1322.83 1059.65 1322.83C1056.12 1322.83 1053.25 1319.96 1053.25 1316.43ZM1053.25 1779.55C1053.25 1776.02 1056.12 1773.15 1059.65 1773.15C1063.19 1773.15 1066.06 1776.02 1066.06 1779.55C1066.06 1783.08 1063.19 1785.94 1059.65 1785.94C1056.12 1785.94 1053.25 1783.08 1053.25 1779.55ZM1053.25 621.752C1053.25 618.221 1056.12 615.353 1059.65 615.353C1063.19 615.353 1066.06 618.221 1066.06 621.752C1066.06 625.281 1063.19 628.148 1059.65 628.148C1056.12 628.148 1053.25 625.281 1053.25 621.752ZM1053.25 776.123C1053.25 772.592 1056.12 769.724 1059.65 769.724C1063.19 769.724 1066.06 772.592 1066.06 776.123C1066.06 779.655 1063.19 782.519 1059.65 782.519C1056.12 782.519 1053.25 779.655 1053.25 776.123ZM1055.38 4.26497C1055.38 1.91035 1057.3 -4.62187e-05 1059.65 -4.63216e-05C1062.01 -4.64247e-05 1063.92 1.91035 1063.92 4.26497C1063.92 6.61946 1062.01 8.52986 1059.65 8.52986C1057.3 8.52986 1055.38 6.61946 1055.38 4.26497ZM1057.52 1856.73C1057.52 1855.55 1058.47 1854.6 1059.65 1854.6C1060.83 1854.6 1061.79 1855.55 1061.79 1856.73C1061.79 1857.91 1060.83 1858.87 1059.65 1858.87C1058.47 1858.87 1057.52 1857.91 1057.52 1856.73ZM956.343 1007.69C956.343 991.456 969.539 978.275 985.794 978.275C1002.05 978.275 1015.25 991.456 1015.25 1007.69C1015.25 1023.92 1002.05 1037.1 985.794 1037.1C969.539 1037.1 956.343 1023.92 956.343 1007.69ZM962.303 1084.87C962.303 1071.93 972.83 1061.41 985.794 1061.41C998.762 1061.41 1009.29 1071.93 1009.29 1084.87C1009.29 1097.82 998.762 1108.33 985.794 1108.33C972.83 1108.33 962.303 1097.82 962.303 1084.87ZM962.303 930.495C962.303 917.548 972.83 907.036 985.794 907.036C998.762 907.036 1009.29 917.548 1009.29 930.495C1009.29 943.441 998.762 953.953 985.794 953.953C972.83 953.953 962.303 943.441 962.303 930.495ZM964.44 853.307C964.44 841.538 974.009 831.983 985.794 831.983C997.583 831.983 1007.15 841.538 1007.15 853.307C1007.15 865.08 997.583 874.635 985.794 874.635C974.009 874.635 964.44 865.08 964.44 853.307ZM966.574 1162.06C966.574 1151.47 975.188 1142.87 985.794 1142.87C996.405 1142.87 1005.01 1151.47 1005.01 1162.06C1005.01 1172.65 996.405 1181.25 985.794 1181.25C975.188 1181.25 966.574 1172.65 966.574 1162.06ZM970.845 1239.25C970.845 1231.01 977.546 1224.32 985.794 1224.32C994.047 1224.32 1000.74 1231.01 1000.74 1239.25C1000.74 1247.48 994.047 1254.18 985.794 1254.18C977.546 1254.18 970.845 1247.48 970.845 1239.25ZM972.982 1702.36C972.982 1695.3 978.724 1689.57 985.794 1689.57C992.868 1689.57 998.61 1695.3 998.61 1702.36C998.61 1709.42 992.868 1715.16 985.794 1715.16C978.724 1715.16 972.982 1709.42 972.982 1702.36ZM972.982 1547.99C972.982 1540.93 978.724 1535.19 985.794 1535.19C992.868 1535.19 998.61 1540.93 998.61 1547.99C998.61 1555.05 992.868 1560.78 985.794 1560.78C978.724 1560.78 972.982 1555.05 972.982 1547.99ZM972.982 1316.43C972.982 1309.37 978.724 1303.64 985.794 1303.64C992.868 1303.64 998.61 1309.37 998.61 1316.43C998.61 1323.49 992.868 1329.23 985.794 1329.23C978.724 1329.23 972.982 1323.49 972.982 1316.43ZM975.119 1470.8C975.119 1464.92 979.903 1460.14 985.794 1460.14C991.689 1460.14 996.473 1464.92 996.473 1470.8C996.473 1476.69 991.689 1481.47 985.794 1481.47C979.903 1481.47 975.119 1476.69 975.119 1470.8ZM977.253 776.123C977.253 771.414 981.082 767.594 985.794 767.594C990.51 767.594 994.336 771.414 994.336 776.123C994.336 780.833 990.51 784.653 985.794 784.653C981.082 784.653 977.253 780.833 977.253 776.123ZM977.253 544.565C977.253 539.856 981.082 536.035 985.794 536.035C990.51 536.035 994.336 539.856 994.336 544.565C994.336 549.274 990.51 553.095 985.794 553.095C981.082 553.095 977.253 549.274 977.253 544.565ZM977.253 621.752C977.253 617.043 981.082 613.219 985.794 613.219C990.51 613.219 994.336 617.043 994.336 621.752C994.336 626.458 990.51 630.282 985.794 630.282C981.082 630.282 977.253 626.458 977.253 621.752ZM977.253 235.823C977.253 231.114 981.082 227.29 985.794 227.29C990.51 227.29 994.336 231.114 994.336 235.823C994.336 240.529 990.51 244.353 985.794 244.353C981.082 244.353 977.253 240.529 977.253 235.823ZM979.39 698.936C979.39 695.404 982.261 692.541 985.794 692.541C989.331 692.541 992.202 695.404 992.202 698.936C992.202 702.468 989.331 705.335 985.794 705.335C982.261 705.335 979.39 702.468 979.39 698.936ZM979.39 1393.62C979.39 1390.09 982.261 1387.22 985.794 1387.22C989.331 1387.22 992.202 1390.09 992.202 1393.62C992.202 1397.15 989.331 1400.02 985.794 1400.02C982.261 1400.02 979.39 1397.15 979.39 1393.62ZM892.715 1239.25C892.715 1228.65 901.329 1220.05 911.935 1220.05C922.545 1220.05 931.156 1228.65 931.156 1239.25C931.156 1249.84 922.545 1258.44 911.935 1258.44C901.329 1258.44 892.715 1249.84 892.715 1239.25ZM894.852 853.307C894.852 843.893 902.508 836.248 911.935 836.248C921.366 836.248 929.022 843.893 929.022 853.307C929.022 862.725 921.366 870.37 911.935 870.37C902.508 870.37 894.852 862.725 894.852 853.307ZM894.852 930.495C894.852 921.076 902.508 913.435 911.935 913.435C921.366 913.435 929.022 921.076 929.022 930.495C929.022 939.913 921.366 947.554 911.935 947.554C902.508 947.554 894.852 939.913 894.852 930.495ZM894.852 1316.43C894.852 1307.02 902.508 1299.37 911.935 1299.37C921.366 1299.37 929.022 1307.02 929.022 1316.43C929.022 1325.85 921.366 1333.49 911.935 1333.49C902.508 1333.49 894.852 1325.85 894.852 1316.43ZM894.852 1007.69C894.852 998.271 902.508 990.626 911.935 990.626C921.366 990.626 929.022 998.271 929.022 1007.69C929.022 1017.1 921.366 1024.75 911.935 1024.75C902.508 1024.75 894.852 1017.1 894.852 1007.69ZM894.852 1084.87C894.852 1075.46 902.508 1067.81 911.935 1067.81C921.366 1067.81 929.022 1075.46 929.022 1084.87C929.022 1094.29 921.366 1101.94 911.935 1101.94C902.508 1101.94 894.852 1094.29 894.852 1084.87ZM896.989 621.752C896.989 613.512 903.686 606.823 911.935 606.823C920.188 606.823 926.885 613.512 926.885 621.752C926.885 629.99 920.188 636.682 911.935 636.682C903.686 636.682 896.989 629.99 896.989 621.752ZM896.989 698.936C896.989 690.699 903.686 684.007 911.935 684.007C920.188 684.007 926.885 690.699 926.885 698.936C926.885 707.177 920.188 713.865 911.935 713.865C903.686 713.865 896.989 707.177 896.989 698.936ZM896.989 1393.62C896.989 1385.38 903.687 1378.69 911.935 1378.69C920.188 1378.69 926.885 1385.38 926.885 1393.62C926.885 1401.86 920.188 1408.55 911.935 1408.55C903.687 1408.55 896.989 1401.86 896.989 1393.62ZM899.123 776.123C899.123 769.06 904.865 763.329 911.935 763.329C919.009 763.329 924.751 769.06 924.751 776.123C924.751 783.184 919.009 788.918 911.935 788.918C904.865 788.918 899.123 783.184 899.123 776.123ZM899.123 544.565C899.123 537.502 904.865 531.77 911.935 531.77C919.009 531.77 924.751 537.502 924.751 544.565C924.751 551.629 919.009 557.36 911.935 557.36C904.865 557.36 899.123 551.629 899.123 544.565ZM901.26 1162.06C901.26 1156.17 906.044 1151.4 911.935 1151.4C917.83 1151.4 922.614 1156.17 922.614 1162.06C922.614 1167.95 917.83 1172.72 911.935 1172.72C906.044 1172.72 901.26 1167.95 901.26 1162.06ZM901.26 1702.36C901.26 1696.47 906.044 1691.7 911.935 1691.7C917.83 1691.7 922.614 1696.47 922.614 1702.36C922.614 1708.25 917.83 1713.02 911.935 1713.02C906.044 1713.02 901.26 1708.25 901.26 1702.36ZM901.26 235.823C901.26 229.937 906.044 225.159 911.935 225.159C917.83 225.159 922.614 229.937 922.614 235.823C922.614 241.706 917.83 246.484 911.935 246.484C906.044 246.484 901.26 241.706 901.26 235.823ZM901.26 313.007C901.26 307.124 906.044 302.343 911.935 302.343C917.83 302.343 922.614 307.124 922.614 313.007C922.614 318.893 917.83 323.671 911.935 323.671C906.044 323.671 901.26 318.893 901.26 313.007ZM903.394 1470.8C903.394 1466.1 907.223 1462.27 911.935 1462.27C916.651 1462.27 920.481 1466.1 920.481 1470.8C920.481 1475.51 916.651 1479.34 911.935 1479.34C907.223 1479.34 903.394 1475.51 903.394 1470.8ZM903.393 390.194C903.393 385.485 907.223 381.664 911.935 381.664C916.651 381.664 920.48 385.485 920.48 390.194C920.48 394.903 916.651 398.724 911.935 398.724C907.223 398.724 903.393 394.903 903.393 390.194ZM903.394 1547.99C903.394 1543.28 907.223 1539.46 911.935 1539.46C916.651 1539.46 920.481 1543.28 920.481 1547.99C920.481 1552.7 916.651 1556.52 911.935 1556.52C907.223 1556.52 903.394 1552.7 903.394 1547.99ZM907.664 158.636C907.664 156.281 909.581 154.371 911.935 154.371C914.293 154.371 916.206 156.281 916.206 158.636C916.206 160.99 914.293 162.901 911.935 162.901C909.581 162.901 907.664 160.99 907.664 158.636ZM909.802 1856.73C909.802 1855.55 910.756 1854.6 911.935 1854.6C913.114 1854.6 914.072 1855.55 914.072 1856.73C914.072 1857.91 913.114 1858.87 911.935 1858.87C910.756 1858.87 909.802 1857.91 909.802 1856.73ZM808.625 853.307C808.625 837.075 821.821 823.897 838.076 823.897C854.335 823.897 867.531 837.075 867.531 853.307C867.531 869.543 854.335 882.721 838.076 882.721C821.821 882.721 808.625 869.543 808.625 853.307ZM814.585 1007.69C814.585 994.743 825.112 984.23 838.076 984.23C851.044 984.23 861.568 994.743 861.568 1007.69C861.568 1020.64 851.044 1031.15 838.076 1031.15C825.112 1031.15 814.585 1020.64 814.585 1007.69ZM814.585 1084.87C814.585 1071.93 825.112 1061.41 838.076 1061.41C851.044 1061.41 861.568 1071.93 861.568 1084.87C861.568 1097.82 851.044 1108.33 838.076 1108.33C825.112 1108.33 814.585 1097.82 814.585 1084.87ZM820.993 1162.06C820.993 1152.65 828.648 1145 838.076 1145C847.507 1145 855.163 1152.65 855.163 1162.06C855.163 1171.48 847.507 1179.12 838.076 1179.12C828.648 1179.12 820.993 1171.48 820.993 1162.06ZM823.126 930.495C823.126 922.254 829.827 915.566 838.076 915.566C846.328 915.566 853.026 922.254 853.026 930.495C853.026 938.735 846.328 945.424 838.076 945.424C829.827 945.424 823.126 938.735 823.126 930.495ZM823.126 1470.8C823.126 1462.56 829.827 1455.87 838.076 1455.87C846.328 1455.87 853.026 1462.56 853.026 1470.8C853.026 1479.04 846.328 1485.73 838.076 1485.73C829.827 1485.73 823.126 1479.04 823.126 1470.8ZM823.126 776.123C823.126 767.883 829.827 761.195 838.076 761.195C846.328 761.195 853.026 767.883 853.026 776.123C853.026 784.361 846.328 791.053 838.076 791.053C829.827 791.053 823.126 784.361 823.126 776.123ZM825.264 1393.62C825.264 1386.55 831.006 1380.82 838.076 1380.82C845.15 1380.82 850.892 1386.55 850.892 1393.62C850.892 1400.68 845.15 1406.41 838.076 1406.41C831.006 1406.41 825.264 1400.68 825.264 1393.62ZM825.264 1316.43C825.264 1309.37 831.006 1303.64 838.076 1303.64C845.15 1303.64 850.892 1309.37 850.892 1316.43C850.892 1323.49 845.15 1329.23 838.076 1329.23C831.006 1329.23 825.264 1323.49 825.264 1316.43ZM825.264 1239.25C825.264 1232.18 831.006 1226.45 838.076 1226.45C845.15 1226.45 850.892 1232.18 850.892 1239.25C850.892 1246.31 845.15 1252.04 838.076 1252.04C831.006 1252.04 825.264 1246.31 825.264 1239.25ZM827.401 621.752C827.401 615.866 832.185 611.088 838.076 611.088C843.971 611.088 848.755 615.866 848.755 621.752C848.755 627.635 843.971 632.413 838.076 632.413C832.185 632.413 827.401 627.635 827.401 621.752ZM827.401 544.565C827.401 538.679 832.185 533.901 838.076 533.901C843.971 533.901 848.755 538.679 848.755 544.565C848.755 550.452 843.971 555.229 838.076 555.229C832.185 555.229 827.401 550.452 827.401 544.565ZM827.401 390.194C827.401 384.308 832.185 379.53 838.076 379.53C843.971 379.53 848.755 384.308 848.755 390.194C848.755 396.081 843.971 400.858 838.076 400.858C832.185 400.858 827.401 396.081 827.401 390.194ZM829.534 467.378C829.534 462.672 833.364 458.848 838.076 458.848C842.792 458.848 846.618 462.672 846.618 467.378C846.618 472.087 842.792 475.911 838.076 475.911C833.364 475.911 829.534 472.087 829.534 467.378ZM831.672 698.936C831.672 695.405 834.543 692.541 838.076 692.541C841.613 692.541 844.484 695.405 844.484 698.936C844.484 702.468 841.613 705.335 838.076 705.335C834.543 705.335 831.672 702.468 831.672 698.936ZM831.672 1547.99C831.672 1544.46 834.543 1541.59 838.076 1541.59C841.613 1541.59 844.484 1544.46 844.484 1547.99C844.484 1551.52 841.613 1554.39 838.076 1554.39C834.543 1554.39 831.672 1551.52 831.672 1547.99ZM833.805 81.4486C833.805 79.0977 835.722 77.1837 838.076 77.1837C840.434 77.1837 842.347 79.0977 842.347 81.4486C842.347 83.8032 840.434 85.7171 838.076 85.7171C835.722 85.7171 833.805 83.8032 833.805 81.4486ZM738.592 930.495C738.592 916.371 750.074 904.902 764.217 904.902C778.364 904.902 789.846 916.371 789.846 930.495C789.846 944.618 778.364 956.088 764.217 956.088C750.074 956.088 738.592 944.618 738.592 930.495ZM740.725 853.307C740.725 840.361 751.253 829.848 764.217 829.848C777.185 829.848 787.708 840.361 787.708 853.307C787.708 866.257 777.185 876.766 764.217 876.766C751.253 876.766 740.725 866.257 740.725 853.307ZM742.863 1084.87C742.863 1073.1 752.431 1063.55 764.217 1063.55C776.006 1063.55 785.575 1073.1 785.575 1084.87C785.575 1096.65 776.006 1106.2 764.217 1106.2C752.431 1106.2 742.863 1096.65 742.863 1084.87ZM749.271 1162.06C749.271 1153.82 755.968 1147.13 764.217 1147.13C772.469 1147.13 779.167 1153.82 779.167 1162.06C779.167 1170.3 772.469 1176.99 764.217 1176.99C755.968 1176.99 749.271 1170.3 749.271 1162.06ZM751.404 1007.69C751.404 1000.63 757.147 994.894 764.217 994.894C771.29 994.894 777.033 1000.63 777.033 1007.69C777.033 1014.75 771.29 1020.48 764.217 1020.48C757.147 1020.48 751.404 1014.75 751.404 1007.69ZM751.404 1547.99C751.404 1540.93 757.147 1535.19 764.217 1535.19C771.29 1535.19 777.033 1540.93 777.033 1547.99C777.033 1555.05 771.29 1560.78 764.217 1560.78C757.147 1560.78 751.404 1555.05 751.404 1547.99ZM751.404 544.565C751.404 537.502 757.147 531.77 764.217 531.77C771.29 531.77 777.033 537.502 777.033 544.565C777.033 551.629 771.29 557.36 764.217 557.36C757.147 557.36 751.404 551.629 751.404 544.565ZM753.542 467.378C753.542 461.495 758.326 456.717 764.217 456.717C770.111 456.717 774.896 461.495 774.896 467.378C774.896 473.264 770.111 478.042 764.217 478.042C758.326 478.042 753.542 473.264 753.542 467.378ZM753.542 1625.18C753.542 1619.29 758.326 1614.51 764.217 1614.51C770.112 1614.51 774.896 1619.29 774.896 1625.18C774.896 1631.06 770.112 1635.84 764.217 1635.84C758.326 1635.84 753.542 1631.06 753.542 1625.18ZM755.675 776.124C755.675 771.414 759.505 767.594 764.217 767.594C768.933 767.594 772.762 771.414 772.762 776.124C772.762 780.833 768.933 784.653 764.217 784.653C759.505 784.653 755.675 780.833 755.675 776.124ZM755.675 1393.62C755.675 1388.91 759.505 1385.09 764.217 1385.09C768.933 1385.09 772.762 1388.91 772.762 1393.62C772.762 1398.32 768.933 1402.15 764.217 1402.15C759.505 1402.15 755.675 1398.32 755.675 1393.62ZM755.675 390.194C755.675 385.485 759.505 381.664 764.217 381.664C768.933 381.664 772.762 385.485 772.762 390.194C772.762 394.903 768.933 398.724 764.217 398.724C759.505 398.724 755.675 394.903 755.675 390.194ZM755.675 313.007C755.675 308.298 759.505 304.477 764.217 304.477C768.933 304.477 772.762 308.298 772.762 313.007C772.762 317.716 768.933 321.537 764.217 321.537C759.505 321.537 755.675 317.716 755.675 313.007ZM755.675 1702.36C755.675 1697.65 759.505 1693.83 764.217 1693.83C768.933 1693.83 772.762 1697.65 772.762 1702.36C772.762 1707.07 768.933 1710.89 764.217 1710.89C759.505 1710.89 755.675 1707.07 755.675 1702.36ZM757.812 1316.43C757.812 1312.9 760.684 1310.03 764.217 1310.03C767.754 1310.03 770.625 1312.9 770.625 1316.43C770.625 1319.96 767.754 1322.83 764.217 1322.83C760.684 1322.83 757.812 1319.96 757.812 1316.43ZM757.812 1239.25C757.812 1235.72 760.684 1232.85 764.217 1232.85C767.754 1232.85 770.625 1235.72 770.625 1239.25C770.625 1242.78 767.754 1245.64 764.217 1245.64C760.684 1245.64 757.812 1242.78 757.812 1239.25ZM757.812 621.752C757.812 618.221 760.684 615.353 764.217 615.353C767.754 615.353 770.625 618.221 770.625 621.752C770.625 625.281 767.754 628.148 764.217 628.148C760.684 628.148 757.812 625.281 757.812 621.752ZM759.946 1470.8C759.946 1468.45 761.863 1466.54 764.217 1466.54C766.575 1466.54 768.488 1468.45 768.488 1470.8C768.488 1473.16 766.575 1475.07 764.217 1475.07C761.863 1475.07 759.946 1473.16 759.946 1470.8ZM759.946 698.936C759.946 696.582 761.863 694.671 764.217 694.671C766.575 694.671 768.488 696.582 768.488 698.936C768.488 701.291 766.575 703.201 764.217 703.201C761.863 703.201 759.946 701.291 759.946 698.936ZM759.946 4.26498C759.946 1.91037 761.863 -3.3304e-05 764.217 -3.34069e-05C766.575 -3.351e-05 768.488 1.91037 768.488 4.26498C768.488 6.61947 766.575 8.52987 764.217 8.52987C761.863 8.52987 759.946 6.61947 759.946 4.26498ZM666.866 930.495C666.866 917.548 677.393 907.036 690.358 907.036C703.326 907.036 713.849 917.548 713.849 930.495C713.849 943.441 703.326 953.953 690.358 953.953C677.393 953.953 666.866 943.441 666.866 930.495ZM669.004 1239.25C669.004 1227.47 678.572 1217.92 690.358 1217.92C702.147 1217.92 711.716 1227.47 711.716 1239.25C711.716 1251.02 702.147 1260.57 690.358 1260.57C678.572 1260.57 669.004 1251.02 669.004 1239.25ZM671.137 1084.87C671.137 1074.28 679.751 1065.68 690.358 1065.68C700.968 1065.68 709.578 1074.28 709.578 1084.87C709.578 1095.47 700.968 1104.07 690.358 1104.07C679.751 1104.07 671.137 1095.47 671.137 1084.87ZM671.137 1162.06C671.137 1151.47 679.751 1142.87 690.358 1142.87C700.968 1142.87 709.578 1151.47 709.578 1162.06C709.578 1172.65 700.968 1181.25 690.358 1181.25C679.751 1181.25 671.137 1172.65 671.137 1162.06ZM671.137 853.307C671.137 842.715 679.751 834.117 690.358 834.117C700.968 834.117 709.578 842.715 709.578 853.307C709.578 863.903 700.968 872.501 690.358 872.501C679.751 872.501 671.137 863.903 671.137 853.307ZM673.274 544.565C673.274 535.151 680.93 527.505 690.358 527.505C699.789 527.505 707.445 535.151 707.445 544.565C707.445 553.983 699.789 561.625 690.358 561.625C680.93 561.625 673.274 553.983 673.274 544.565ZM673.274 776.124C673.274 766.705 680.93 759.06 690.358 759.06C699.789 759.06 707.445 766.705 707.445 776.124C707.445 785.538 699.789 793.183 690.358 793.183C680.93 793.183 673.274 785.538 673.274 776.124ZM675.412 1007.69C675.412 999.448 682.109 992.76 690.358 992.76C698.61 992.76 705.308 999.448 705.308 1007.69C705.308 1015.93 698.61 1022.62 690.358 1022.62C682.109 1022.62 675.412 1015.93 675.412 1007.69ZM675.412 1625.18C675.412 1616.94 682.109 1610.25 690.358 1610.25C698.61 1610.25 705.308 1616.94 705.308 1625.18C705.308 1633.41 698.61 1640.1 690.358 1640.1C682.109 1640.1 675.412 1633.41 675.412 1625.18ZM681.816 1316.43C681.816 1311.72 685.646 1307.9 690.358 1307.9C695.073 1307.9 698.903 1311.72 698.903 1316.43C698.903 1321.14 695.073 1324.96 690.358 1324.96C685.646 1324.96 681.816 1321.14 681.816 1316.43ZM681.816 621.752C681.816 617.043 685.646 613.219 690.358 613.219C695.073 613.219 698.903 617.043 698.903 621.752C698.903 626.458 695.073 630.282 690.358 630.282C685.646 630.282 681.816 626.458 681.816 621.752ZM683.953 1702.36C683.953 1698.83 686.825 1695.96 690.358 1695.96C693.895 1695.96 696.766 1698.83 696.766 1702.36C696.766 1705.89 693.895 1708.76 690.358 1708.76C686.825 1708.76 683.953 1705.89 683.953 1702.36ZM683.953 467.378C683.953 463.85 686.825 460.982 690.358 460.982C693.895 460.982 696.766 463.85 696.766 467.378C696.766 470.91 693.895 473.777 690.358 473.777C686.825 473.777 683.953 470.91 683.953 467.378ZM683.953 1547.99C683.953 1544.46 686.825 1541.59 690.358 1541.59C693.895 1541.59 696.766 1544.46 696.766 1547.99C696.766 1551.52 693.895 1554.39 690.358 1554.39C686.825 1554.39 683.953 1551.52 683.953 1547.99ZM683.953 698.936C683.953 695.405 686.825 692.541 690.358 692.541C693.895 692.541 696.766 695.405 696.766 698.936C696.766 702.468 693.895 705.335 690.358 705.335C686.825 705.335 683.953 702.468 683.953 698.936ZM686.087 1779.55C686.087 1777.19 688.004 1775.28 690.358 1775.28C692.716 1775.28 694.632 1777.19 694.632 1779.55C694.632 1781.9 692.716 1783.81 690.358 1783.81C688.004 1783.81 686.087 1781.9 686.087 1779.55ZM686.087 1393.62C686.087 1391.26 688.004 1389.35 690.358 1389.35C692.716 1389.35 694.632 1391.26 694.632 1393.62C694.632 1395.97 692.716 1397.88 690.358 1397.88C688.004 1397.88 686.087 1395.97 686.087 1393.62ZM688.224 1856.73C688.224 1855.55 689.179 1854.6 690.358 1854.6C691.537 1854.6 692.495 1855.55 692.495 1856.73C692.495 1857.91 691.537 1858.87 690.358 1858.87C689.179 1858.87 688.224 1857.91 688.224 1856.73ZM587.044 930.495C587.044 914.262 600.243 901.081 616.499 901.081C632.758 901.081 645.953 914.262 645.953 930.495C645.953 946.727 632.758 959.908 616.499 959.908C600.243 959.908 587.044 946.727 587.044 930.495ZM590.874 1084.87C590.874 1070.75 602.355 1059.28 616.499 1059.28C630.646 1059.28 642.127 1070.75 642.127 1084.87C642.127 1099 630.646 1110.47 616.499 1110.47C602.355 1110.47 590.874 1099 590.874 1084.87ZM593.007 853.307C593.007 840.361 603.534 829.848 616.499 829.848C629.467 829.848 639.99 840.361 639.99 853.307C639.99 866.257 629.467 876.766 616.499 876.766C603.534 876.766 593.007 866.257 593.007 853.307ZM597.278 1007.69C597.278 997.094 605.892 988.495 616.499 988.495C627.109 988.495 635.719 997.094 635.719 1007.69C635.719 1018.28 627.109 1026.88 616.499 1026.88C605.892 1026.88 597.278 1018.28 597.278 1007.69ZM597.278 1239.25C597.278 1228.65 605.892 1220.05 616.499 1220.05C627.109 1220.05 635.719 1228.65 635.719 1239.25C635.719 1249.84 627.109 1258.44 616.499 1258.44C605.892 1258.44 597.278 1249.84 597.278 1239.25ZM597.278 1393.62C597.278 1383.02 605.892 1374.42 616.499 1374.42C627.109 1374.42 635.719 1383.02 635.719 1393.62C635.719 1404.21 627.109 1412.81 616.499 1412.81C605.892 1412.81 597.278 1404.21 597.278 1393.62ZM599.415 621.752C599.415 612.334 607.071 604.689 616.499 604.689C625.93 604.689 633.586 612.334 633.586 621.752C633.586 631.167 625.93 638.812 616.499 638.812C607.071 638.812 599.415 631.167 599.415 621.752ZM605.823 1316.43C605.823 1310.55 610.608 1305.77 616.499 1305.77C622.393 1305.77 627.178 1310.55 627.178 1316.43C627.178 1322.32 622.393 1327.1 616.499 1327.1C610.608 1327.1 605.823 1322.32 605.823 1316.43ZM607.957 1162.06C607.957 1157.35 611.787 1153.53 616.499 1153.53C621.214 1153.53 625.044 1157.35 625.044 1162.06C625.044 1166.77 621.214 1170.59 616.499 1170.59C611.787 1170.59 607.957 1166.77 607.957 1162.06ZM607.957 698.936C607.957 694.227 611.787 690.406 616.499 690.406C621.214 690.406 625.044 694.227 625.044 698.936C625.044 703.645 621.214 707.466 616.499 707.466C611.787 707.466 607.957 703.645 607.957 698.936ZM607.957 235.823C607.957 231.114 611.787 227.29 616.499 227.29C621.214 227.29 625.044 231.114 625.044 235.823C625.044 240.529 621.214 244.353 616.499 244.353C611.787 244.353 607.957 240.529 607.957 235.823ZM607.957 467.378C607.957 462.672 611.787 458.848 616.499 458.848C621.214 458.848 625.044 462.672 625.044 467.378C625.044 472.087 621.214 475.911 616.499 475.911C611.787 475.911 607.957 472.087 607.957 467.378ZM607.957 1702.36C607.957 1697.65 611.787 1693.83 616.499 1693.83C621.214 1693.83 625.044 1697.65 625.044 1702.36C625.044 1707.07 621.214 1710.89 616.499 1710.89C611.787 1710.89 607.957 1707.07 607.957 1702.36ZM607.957 776.124C607.957 771.414 611.787 767.594 616.499 767.594C621.214 767.594 625.044 771.414 625.044 776.124C625.044 780.833 621.214 784.653 616.499 784.653C611.787 784.653 607.957 780.833 607.957 776.124ZM610.094 390.194C610.094 386.662 612.966 383.795 616.499 383.795C620.035 383.795 622.907 386.662 622.907 390.194C622.907 393.726 620.035 396.593 616.499 396.593C612.966 396.593 610.094 393.726 610.094 390.194ZM610.094 544.565C610.094 541.033 612.966 538.166 616.499 538.166C620.035 538.166 622.907 541.033 622.907 544.565C622.907 548.097 620.035 550.964 616.499 550.964C612.966 550.964 610.094 548.097 610.094 544.565ZM610.094 1470.8C610.094 1467.27 612.966 1464.41 616.499 1464.41C620.035 1464.41 622.907 1467.27 622.907 1470.8C622.907 1474.33 620.035 1477.2 616.499 1477.2C612.966 1477.2 610.094 1474.33 610.094 1470.8ZM612.228 158.636C612.228 156.281 614.141 154.371 616.499 154.371C618.856 154.371 620.773 156.281 620.773 158.636C620.773 160.99 618.856 162.901 616.499 162.901C614.141 162.901 612.228 160.99 612.228 158.636ZM517.015 1007.69C517.015 993.565 528.496 982.096 542.64 982.096C556.787 982.096 568.268 993.565 568.268 1007.69C568.268 1021.81 556.787 1033.28 542.64 1033.28C528.496 1033.28 517.015 1021.81 517.015 1007.69ZM517.015 1084.87C517.015 1070.75 528.496 1059.28 542.64 1059.28C556.787 1059.28 568.268 1070.75 568.268 1084.87C568.268 1099 556.787 1110.47 542.64 1110.47C528.496 1110.47 517.015 1099 517.015 1084.87ZM523.419 930.495C523.419 919.903 532.033 911.301 542.64 911.301C553.25 911.301 561.86 919.903 561.86 930.495C561.86 941.086 553.25 949.689 542.64 949.689C532.033 949.689 523.419 941.086 523.419 930.495ZM525.556 1316.43C525.556 1307.02 533.212 1299.37 542.64 1299.37C552.071 1299.37 559.727 1307.02 559.727 1316.43C559.727 1325.85 552.071 1333.49 542.64 1333.49C533.212 1333.49 525.556 1325.85 525.556 1316.43ZM525.556 853.307C525.556 843.893 533.212 836.248 542.64 836.248C552.071 836.248 559.727 843.893 559.727 853.307C559.727 862.725 552.071 870.37 542.64 870.37C533.212 870.37 525.556 862.725 525.556 853.307ZM525.556 1162.06C525.556 1152.65 533.212 1145 542.64 1145C552.071 1145 559.727 1152.65 559.727 1162.06C559.727 1171.48 552.071 1179.12 542.64 1179.12C533.212 1179.12 525.556 1171.48 525.556 1162.06ZM525.556 544.565C525.556 535.151 533.212 527.505 542.64 527.505C552.071 527.505 559.727 535.151 559.727 544.565C559.727 553.983 552.071 561.625 542.64 561.625C533.212 561.625 525.556 553.983 525.556 544.565ZM527.693 698.936C527.693 690.699 534.391 684.007 542.64 684.007C550.892 684.007 557.589 690.699 557.589 698.936C557.589 707.177 550.892 713.865 542.64 713.865C534.391 713.865 527.693 707.177 527.693 698.936ZM529.827 1393.62C529.827 1386.55 535.57 1380.82 542.64 1380.82C549.713 1380.82 555.456 1386.55 555.456 1393.62C555.456 1400.68 549.713 1406.41 542.64 1406.41C535.57 1406.41 529.827 1400.68 529.827 1393.62ZM531.964 776.124C531.964 770.237 536.749 765.46 542.64 765.46C548.534 765.46 553.318 770.237 553.318 776.124C553.318 782.006 548.534 786.788 542.64 786.788C536.749 786.788 531.964 782.006 531.964 776.124ZM531.964 621.752C531.964 615.866 536.749 611.088 542.64 611.088C548.534 611.088 553.318 615.866 553.318 621.752C553.318 627.635 548.534 632.413 542.64 632.413C536.749 632.413 531.964 627.635 531.964 621.752ZM531.964 1470.8C531.964 1464.92 536.749 1460.14 542.64 1460.14C548.534 1460.14 553.318 1464.92 553.318 1470.8C553.318 1476.69 548.534 1481.47 542.64 1481.47C536.749 1481.47 531.964 1476.69 531.964 1470.8ZM531.964 1239.25C531.964 1233.36 536.749 1228.58 542.64 1228.58C548.534 1228.58 553.318 1233.36 553.318 1239.25C553.318 1245.13 548.534 1249.91 542.64 1249.91C536.749 1249.91 531.964 1245.13 531.964 1239.25ZM536.235 1779.55C536.235 1776.02 539.107 1773.15 542.64 1773.15C546.176 1773.15 549.048 1776.02 549.048 1779.55C549.048 1783.08 546.176 1785.94 542.64 1785.94C539.107 1785.94 536.235 1783.08 536.235 1779.55ZM536.235 313.007C536.235 309.475 539.106 306.611 542.64 306.611C546.176 306.611 549.048 309.475 549.048 313.007C549.048 316.539 546.176 319.406 542.64 319.406C539.106 319.406 536.235 316.539 536.235 313.007ZM536.235 1625.18C536.235 1621.64 539.106 1618.78 542.64 1618.78C546.176 1618.78 549.048 1621.64 549.048 1625.18C549.048 1628.7 546.176 1631.57 542.64 1631.57C539.106 1631.57 536.235 1628.7 536.235 1625.18ZM536.235 235.823C536.235 232.291 539.106 229.424 542.64 229.424C546.176 229.424 549.048 232.291 549.048 235.823C549.048 239.351 546.176 242.219 542.64 242.219C539.106 242.219 536.235 239.351 536.235 235.823ZM536.235 1702.36C536.235 1698.83 539.106 1695.96 542.64 1695.96C546.176 1695.96 549.048 1698.83 549.048 1702.36C549.048 1705.89 546.176 1708.76 542.64 1708.76C539.106 1708.76 536.235 1705.89 536.235 1702.36ZM538.369 1856.73C538.369 1854.38 540.282 1852.47 542.64 1852.47C544.997 1852.47 546.914 1854.38 546.914 1856.73C546.914 1859.09 544.997 1861 542.64 1861C540.282 1861 538.369 1859.09 538.369 1856.73ZM439.329 1007.69C439.329 991.456 452.525 978.275 468.78 978.275C485.039 978.275 498.235 991.456 498.235 1007.69C498.235 1023.92 485.039 1037.1 468.78 1037.1C452.525 1037.1 439.329 1023.92 439.329 1007.69ZM447.426 1084.87C447.426 1073.1 456.995 1063.55 468.78 1063.55C480.57 1063.55 490.138 1073.1 490.138 1084.87C490.138 1096.65 480.57 1106.2 468.78 1106.2C456.995 1106.2 447.426 1096.65 447.426 1084.87ZM451.697 930.495C451.697 921.076 459.353 913.435 468.78 913.435C478.212 913.435 485.867 921.076 485.867 930.495C485.867 939.913 478.212 947.554 468.78 947.554C459.353 947.554 451.697 939.913 451.697 930.495ZM451.697 1239.25C451.697 1229.83 459.353 1222.18 468.78 1222.18C478.212 1222.18 485.867 1229.83 485.867 1239.25C485.867 1248.66 478.212 1256.31 468.78 1256.31C459.353 1256.31 451.697 1248.66 451.697 1239.25ZM451.697 1393.62C451.697 1384.2 459.353 1376.56 468.78 1376.56C478.212 1376.56 485.867 1384.2 485.867 1393.62C485.867 1403.03 478.212 1410.68 468.78 1410.68C459.353 1410.68 451.697 1403.03 451.697 1393.62ZM453.834 621.752C453.834 613.512 460.532 606.823 468.78 606.823C477.033 606.823 483.73 613.512 483.73 621.752C483.73 629.99 477.033 636.682 468.78 636.682C460.532 636.682 453.834 629.99 453.834 621.752ZM453.834 853.307C453.834 845.07 460.532 838.382 468.78 838.382C477.033 838.382 483.73 845.07 483.73 853.307C483.73 861.548 477.033 868.236 468.78 868.236C460.532 868.236 453.834 861.548 453.834 853.307ZM453.834 1316.43C453.834 1308.19 460.532 1301.5 468.78 1301.5C477.033 1301.5 483.73 1308.19 483.73 1316.43C483.73 1324.67 477.033 1331.36 468.78 1331.36C460.532 1331.36 453.834 1324.67 453.834 1316.43ZM455.968 776.124C455.968 769.06 461.711 763.329 468.78 763.329C475.854 763.329 481.597 769.06 481.597 776.124C481.597 783.184 475.854 788.918 468.78 788.918C461.711 788.918 455.968 783.184 455.968 776.124ZM455.968 544.565C455.968 537.502 461.711 531.77 468.78 531.77C475.854 531.77 481.597 537.502 481.597 544.565C481.597 551.629 475.854 557.36 468.78 557.36C461.711 557.36 455.968 551.629 455.968 544.565ZM455.968 1162.06C455.968 1155 461.711 1149.27 468.78 1149.27C475.854 1149.27 481.597 1155 481.597 1162.06C481.597 1169.12 475.854 1174.85 468.78 1174.85C461.711 1174.85 455.968 1169.12 455.968 1162.06ZM458.105 235.823C458.105 229.937 462.89 225.159 468.78 225.159C474.675 225.159 479.459 229.937 479.459 235.823C479.459 241.706 474.675 246.484 468.78 246.484C462.89 246.484 458.105 241.706 458.105 235.823ZM458.105 467.378C458.105 461.495 462.89 456.717 468.78 456.717C474.675 456.717 479.459 461.495 479.459 467.378C479.459 473.264 474.675 478.042 468.78 478.042C462.89 478.042 458.105 473.264 458.105 467.378ZM458.105 1702.36C458.105 1696.47 462.89 1691.7 468.781 1691.7C474.675 1691.7 479.459 1696.47 479.459 1702.36C479.459 1708.25 474.675 1713.02 468.781 1713.02C462.89 1713.02 458.105 1708.25 458.105 1702.36ZM458.105 1625.18C458.105 1619.29 462.89 1614.51 468.781 1614.51C474.675 1614.51 479.459 1619.29 479.459 1625.18C479.459 1631.06 474.675 1635.84 468.781 1635.84C462.89 1635.84 458.105 1631.06 458.105 1625.18ZM460.239 313.007C460.239 308.298 464.068 304.477 468.78 304.477C473.496 304.477 477.326 308.298 477.326 313.007C477.326 317.716 473.496 321.537 468.78 321.537C464.068 321.537 460.239 317.716 460.239 313.007ZM460.239 390.194C460.239 385.485 464.068 381.664 468.78 381.664C473.496 381.664 477.326 385.485 477.326 390.194C477.326 394.903 473.496 398.724 468.78 398.724C464.068 398.724 460.239 394.903 460.239 390.194ZM460.239 698.936C460.239 694.227 464.068 690.406 468.78 690.406C473.496 690.406 477.326 694.227 477.326 698.936C477.326 703.645 473.496 707.466 468.78 707.466C464.068 707.466 460.239 703.645 460.239 698.936ZM466.647 4.26499C466.647 3.08763 467.602 2.13059 468.78 2.13059C469.959 2.13059 470.918 3.08763 470.918 4.26499C470.918 5.44224 469.959 6.39561 468.78 6.39561C467.602 6.39561 466.647 5.44224 466.647 4.26499ZM369.296 853.307C369.296 839.184 380.778 827.718 394.921 827.718C409.068 827.718 420.55 839.184 420.55 853.307C420.55 867.435 409.068 878.9 394.921 878.9C380.778 878.9 369.296 867.435 369.296 853.307ZM369.296 930.495C369.296 916.371 380.778 904.902 394.921 904.902C409.068 904.902 420.55 916.371 420.55 930.495C420.55 944.618 409.068 956.088 394.921 956.088C380.778 956.088 369.296 944.618 369.296 930.495ZM375.701 776.124C375.701 765.528 384.315 756.93 394.921 756.93C405.532 756.93 414.142 765.528 414.142 776.124C414.142 786.715 405.532 795.317 394.921 795.317C384.315 795.317 375.701 786.715 375.701 776.124ZM375.701 1084.87C375.701 1074.28 384.315 1065.68 394.921 1065.68C405.532 1065.68 414.142 1074.28 414.142 1084.87C414.142 1095.47 405.532 1104.07 394.921 1104.07C384.315 1104.07 375.701 1095.47 375.701 1084.87ZM375.701 1316.43C375.701 1305.84 384.315 1297.24 394.921 1297.24C405.532 1297.24 414.142 1305.84 414.142 1316.43C414.142 1327.03 405.532 1335.63 394.921 1335.63C384.315 1335.63 375.701 1327.03 375.701 1316.43ZM379.975 1162.06C379.975 1153.82 386.673 1147.13 394.921 1147.13C403.174 1147.13 409.871 1153.82 409.871 1162.06C409.871 1170.3 403.174 1176.99 394.921 1176.99C386.673 1176.99 379.975 1170.3 379.975 1162.06ZM379.975 1007.69C379.975 999.448 386.673 992.76 394.921 992.76C403.174 992.76 409.871 999.448 409.871 1007.69C409.871 1015.93 403.174 1022.62 394.921 1022.62C386.673 1022.62 379.975 1015.93 379.975 1007.69ZM379.975 544.565C379.975 536.324 386.673 529.636 394.921 529.636C403.174 529.636 409.871 536.324 409.871 544.565C409.871 552.806 403.174 559.494 394.921 559.494C386.673 559.494 379.975 552.806 379.975 544.565ZM379.975 1470.8C379.975 1462.56 386.673 1455.87 394.921 1455.87C403.174 1455.87 409.871 1462.56 409.871 1470.8C409.871 1479.04 403.174 1485.73 394.921 1485.73C386.673 1485.73 379.975 1479.04 379.975 1470.8ZM379.975 1239.25C379.975 1231.01 386.673 1224.32 394.921 1224.32C403.174 1224.32 409.871 1231.01 409.871 1239.25C409.871 1247.48 403.174 1254.18 394.921 1254.18C386.673 1254.18 379.975 1247.48 379.975 1239.25ZM382.109 621.752C382.109 614.689 387.852 608.954 394.921 608.954C401.995 608.954 407.737 614.689 407.737 621.752C407.737 628.812 401.995 634.547 394.921 634.547C387.852 634.547 382.109 628.812 382.109 621.752ZM382.109 1393.62C382.109 1386.55 387.852 1380.82 394.921 1380.82C401.995 1380.82 407.738 1386.55 407.738 1393.62C407.738 1400.68 401.995 1406.41 394.921 1406.41C387.852 1406.41 382.109 1400.68 382.109 1393.62ZM382.109 1625.18C382.109 1618.11 387.852 1612.38 394.921 1612.38C401.995 1612.38 407.738 1618.11 407.738 1625.18C407.738 1632.24 401.995 1637.97 394.921 1637.97C387.852 1637.97 382.109 1632.24 382.109 1625.18ZM386.38 467.378C386.38 462.672 390.209 458.848 394.921 458.848C399.637 458.848 403.467 462.672 403.467 467.378C403.467 472.087 399.637 475.911 394.921 475.911C390.209 475.911 386.38 472.087 386.38 467.378ZM386.38 1702.36C386.38 1697.65 390.209 1693.83 394.921 1693.83C399.637 1693.83 403.467 1697.65 403.467 1702.36C403.467 1707.07 399.637 1710.89 394.921 1710.89C390.209 1710.89 386.38 1707.07 386.38 1702.36ZM386.38 235.823C386.38 231.114 390.209 227.29 394.921 227.29C399.637 227.29 403.467 231.114 403.467 235.823C403.467 240.529 399.637 244.353 394.921 244.353C390.209 244.353 386.38 240.529 386.38 235.823ZM390.651 698.936C390.651 696.582 392.564 694.671 394.921 694.671C397.279 694.671 399.196 696.582 399.196 698.936C399.196 701.291 397.279 703.201 394.921 703.201C392.564 703.201 390.651 701.291 390.651 698.936ZM390.65 81.4486C390.65 79.0978 392.564 77.1837 394.921 77.1837C397.279 77.1837 399.196 79.0978 399.196 81.4486C399.196 83.8032 397.279 85.7171 394.921 85.7171C392.564 85.7171 390.65 83.8032 390.65 81.4486ZM392.788 4.265C392.788 3.08763 393.742 2.1306 394.921 2.1306C396.1 2.1306 397.059 3.08763 397.059 4.265C397.059 5.44224 396.1 6.39561 394.921 6.39561C393.742 6.39561 392.788 5.44224 392.788 4.265ZM291.609 1084.87C291.609 1068.64 304.807 1055.46 321.064 1055.46C337.321 1055.46 350.517 1068.64 350.517 1084.87C350.517 1101.11 337.321 1114.29 321.064 1114.29C304.807 1114.29 291.609 1101.11 291.609 1084.87ZM295.437 1007.69C295.437 993.565 306.92 982.096 321.064 982.096C335.208 982.096 346.691 993.565 346.691 1007.69C346.691 1021.81 335.208 1033.28 321.064 1033.28C306.92 1033.28 295.437 1021.81 295.437 1007.69ZM299.708 1162.06C299.708 1150.29 309.277 1140.74 321.064 1140.74C332.85 1140.74 342.42 1150.29 342.42 1162.06C342.42 1173.83 332.85 1183.39 321.064 1183.39C309.277 1183.39 299.708 1173.83 299.708 1162.06ZM299.708 853.307C299.708 841.538 309.277 831.983 321.064 831.983C332.85 831.983 342.42 841.538 342.42 853.307C342.42 865.08 332.85 874.635 321.064 874.635C309.277 874.635 299.708 865.08 299.708 853.307ZM301.843 544.565C301.843 533.973 310.456 525.371 321.064 525.371C331.672 525.371 340.283 533.973 340.283 544.565C340.283 555.157 331.672 563.759 321.064 563.759C310.456 563.759 301.843 555.157 301.843 544.565ZM303.979 1547.99C303.979 1538.57 311.634 1530.93 321.064 1530.93C330.493 1530.93 338.149 1538.57 338.149 1547.99C338.149 1557.4 330.493 1565.05 321.064 1565.05C311.634 1565.05 303.979 1557.4 303.979 1547.99ZM306.114 776.124C306.114 767.883 312.813 761.195 321.064 761.195C329.314 761.195 336.012 767.883 336.012 776.124C336.012 784.361 329.314 791.053 321.064 791.053C312.813 791.053 306.114 784.361 306.114 776.124ZM308.25 467.378C308.25 460.318 313.992 454.583 321.064 454.583C328.136 454.583 333.877 460.318 333.877 467.378C333.877 474.442 328.136 480.176 321.064 480.176C313.992 480.176 308.25 474.442 308.25 467.378ZM308.25 930.495C308.25 923.431 313.992 917.7 321.064 917.7C328.136 917.7 333.877 923.431 333.877 930.495C333.877 937.558 328.136 943.289 321.064 943.289C313.992 943.289 308.25 937.558 308.25 930.495ZM310.386 1393.62C310.386 1387.73 315.17 1382.95 321.064 1382.95C326.957 1382.95 331.742 1387.73 331.742 1393.62C331.742 1399.5 326.957 1404.28 321.064 1404.28C315.17 1404.28 310.386 1399.5 310.386 1393.62ZM312.521 1470.8C312.521 1466.1 316.349 1462.27 321.064 1462.27C325.778 1462.27 329.606 1466.1 329.606 1470.8C329.606 1475.51 325.778 1479.34 321.064 1479.34C316.349 1479.34 312.521 1475.51 312.521 1470.8ZM312.521 1239.25C312.521 1234.54 316.349 1230.71 321.064 1230.71C325.778 1230.71 329.606 1234.54 329.606 1239.25C329.606 1243.95 325.778 1247.78 321.064 1247.78C316.349 1247.78 312.521 1243.95 312.521 1239.25ZM312.521 621.752C312.521 617.043 316.349 613.219 321.064 613.219C325.778 613.219 329.606 617.043 329.606 621.752C329.606 626.458 325.778 630.282 321.064 630.282C316.349 630.282 312.521 626.458 312.521 621.752ZM312.521 698.936C312.521 694.227 316.349 690.406 321.064 690.406C325.778 690.406 329.606 694.227 329.606 698.936C329.606 703.645 325.778 707.466 321.064 707.466C316.349 707.466 312.521 703.645 312.521 698.936ZM312.521 1316.43C312.521 1311.72 316.349 1307.9 321.064 1307.9C325.778 1307.9 329.606 1311.72 329.606 1316.43C329.606 1321.14 325.778 1324.96 321.064 1324.96C316.349 1324.96 312.521 1321.14 312.521 1316.43ZM314.657 235.823C314.657 232.291 317.528 229.424 321.064 229.424C324.6 229.424 327.47 232.291 327.47 235.823C327.47 239.351 324.6 242.219 321.064 242.219C317.528 242.219 314.657 239.351 314.657 235.823ZM316.793 313.007C316.793 310.652 318.706 308.742 321.064 308.742C323.421 308.742 325.335 310.652 325.335 313.007C325.335 315.361 323.421 317.272 321.064 317.272C318.706 317.272 316.793 315.361 316.793 313.007ZM316.793 1702.36C316.793 1700.01 318.706 1698.1 321.064 1698.1C323.421 1698.1 325.335 1700.01 325.335 1702.36C325.335 1704.71 323.421 1706.63 321.064 1706.63C318.706 1706.63 316.793 1704.71 316.793 1702.36ZM225.849 1007.69C225.849 995.916 235.418 986.361 247.205 986.361C258.991 986.361 268.561 995.916 268.561 1007.69C268.561 1019.46 258.991 1029.01 247.205 1029.01C235.418 1029.01 225.849 1019.46 225.849 1007.69ZM230.12 698.936C230.12 689.522 237.775 681.877 247.205 681.877C256.634 681.877 264.289 689.522 264.289 698.936C264.289 708.354 256.634 716 247.205 716C237.775 716 230.12 708.354 230.12 698.936ZM230.12 776.124C230.12 766.705 237.775 759.06 247.205 759.06C256.634 759.06 264.289 766.705 264.289 776.124C264.289 785.538 256.634 793.183 247.205 793.183C237.775 793.183 230.12 785.538 230.12 776.124ZM230.12 853.307C230.12 843.893 237.775 836.248 247.205 836.248C256.634 836.248 264.289 843.893 264.289 853.307C264.289 862.725 256.634 870.37 247.205 870.37C237.775 870.37 230.12 862.725 230.12 853.307ZM232.255 930.495C232.255 922.254 238.954 915.566 247.205 915.566C255.455 915.566 262.154 922.254 262.154 930.495C262.154 938.736 255.455 945.424 247.205 945.424C238.954 945.424 232.255 938.736 232.255 930.495ZM232.255 1393.62C232.255 1385.38 238.954 1378.69 247.205 1378.69C255.455 1378.69 262.154 1385.38 262.154 1393.62C262.154 1401.86 255.455 1408.55 247.205 1408.55C238.954 1408.55 232.255 1401.86 232.255 1393.62ZM232.255 1084.87C232.255 1076.64 238.954 1069.95 247.205 1069.95C255.455 1069.95 262.154 1076.64 262.154 1084.87C262.154 1093.11 255.455 1099.8 247.205 1099.8C238.954 1099.8 232.255 1093.11 232.255 1084.87ZM234.391 1239.25C234.391 1232.18 240.133 1226.45 247.205 1226.45C254.277 1226.45 260.018 1232.18 260.018 1239.25C260.018 1246.31 254.277 1252.04 247.205 1252.04C240.133 1252.04 234.391 1246.31 234.391 1239.25ZM234.391 1470.8C234.391 1463.74 240.133 1458.01 247.205 1458.01C254.277 1458.01 260.018 1463.74 260.018 1470.8C260.018 1477.87 254.277 1483.6 247.205 1483.6C240.133 1483.6 234.391 1477.87 234.391 1470.8ZM234.391 1316.43C234.391 1309.37 240.133 1303.64 247.205 1303.64C254.277 1303.64 260.018 1309.37 260.018 1316.43C260.018 1323.49 254.277 1329.23 247.205 1329.23C240.133 1329.23 234.391 1323.49 234.391 1316.43ZM234.391 1162.06C234.391 1155 240.133 1149.27 247.205 1149.27C254.277 1149.27 260.018 1155 260.018 1162.06C260.018 1169.12 254.277 1174.85 247.205 1174.85C240.133 1174.85 234.391 1169.12 234.391 1162.06ZM234.391 621.752C234.391 614.689 240.133 608.954 247.205 608.954C254.277 608.954 260.018 614.689 260.018 621.752C260.018 628.812 254.277 634.547 247.205 634.547C240.133 634.547 234.391 628.812 234.391 621.752ZM236.526 1547.99C236.526 1542.1 241.311 1537.33 247.205 1537.33C253.098 1537.33 257.882 1542.1 257.882 1547.99C257.882 1553.88 253.098 1558.65 247.205 1558.65C241.311 1558.65 236.526 1553.88 236.526 1547.99ZM236.526 390.194C236.526 384.308 241.311 379.53 247.205 379.53C253.098 379.53 257.882 384.308 257.882 390.194C257.882 396.081 253.098 400.858 247.205 400.858C241.311 400.858 236.526 396.081 236.526 390.194ZM238.662 1625.18C238.662 1620.47 242.49 1616.64 247.205 1616.64C251.919 1616.64 255.747 1620.47 255.747 1625.18C255.747 1629.88 251.919 1633.71 247.205 1633.71C242.49 1633.71 238.662 1629.88 238.662 1625.18ZM240.798 1702.36C240.798 1698.83 243.669 1695.96 247.205 1695.96C250.741 1695.96 253.611 1698.83 253.611 1702.36C253.611 1705.89 250.741 1708.76 247.205 1708.76C243.669 1708.76 240.798 1705.89 240.798 1702.36ZM240.798 544.565C240.798 541.033 243.669 538.166 247.205 538.166C250.741 538.166 253.611 541.033 253.611 544.565C253.611 548.097 250.741 550.964 247.205 550.964C243.669 550.964 240.798 548.097 240.798 544.565ZM242.933 1856.73C242.933 1854.38 244.847 1852.47 247.205 1852.47C249.562 1852.47 251.476 1854.38 251.476 1856.73C251.476 1859.09 249.562 1861 247.205 1861C244.847 1861 242.933 1859.09 242.933 1856.73ZM242.933 235.823C242.933 233.469 244.847 231.558 247.205 231.558C249.562 231.558 251.476 233.469 251.476 235.823C251.476 238.178 249.562 240.088 247.205 240.088C244.847 240.088 242.933 238.178 242.933 235.823ZM242.933 158.636C242.933 156.281 244.847 154.371 247.205 154.371C249.562 154.371 251.476 156.281 251.476 158.636C251.476 160.99 249.562 162.901 247.205 162.901C244.847 162.901 242.933 160.99 242.933 158.636ZM245.069 4.265C245.069 3.08764 246.026 2.1306 247.205 2.1306C248.383 2.1306 249.34 3.08764 249.34 4.265C249.34 5.44225 248.383 6.39562 247.205 6.39562C246.026 6.39562 245.069 5.44225 245.069 4.265ZM143.892 930.495C143.892 914.262 157.089 901.081 173.346 901.081C189.601 901.081 202.799 914.262 202.799 930.495C202.799 946.727 189.601 959.908 173.346 959.908C157.089 959.908 143.892 946.727 143.892 930.495ZM147.718 1007.69C147.718 993.565 159.201 982.096 173.346 982.096C187.49 982.096 198.973 993.565 198.973 1007.69C198.973 1021.81 187.49 1033.28 173.346 1033.28C159.201 1033.28 147.718 1021.81 147.718 1007.69ZM151.99 853.307C151.99 841.538 161.559 831.983 173.346 831.983C185.132 831.983 194.701 841.538 194.701 853.307C194.701 865.08 185.132 874.635 173.346 874.635C161.559 874.635 151.99 865.08 151.99 853.307ZM151.99 1084.87C151.99 1073.1 161.559 1063.55 173.346 1063.55C185.132 1063.55 194.702 1073.1 194.702 1084.87C194.702 1096.65 185.132 1106.2 173.346 1106.2C161.559 1106.2 151.99 1096.65 151.99 1084.87ZM154.125 776.124C154.125 765.528 162.737 756.93 173.346 756.93C183.954 756.93 192.566 765.528 192.566 776.124C192.566 786.715 183.954 795.317 173.346 795.317C162.737 795.317 154.125 786.715 154.125 776.124ZM156.261 1316.43C156.261 1307.02 163.916 1299.37 173.346 1299.37C182.775 1299.37 190.43 1307.02 190.43 1316.43C190.43 1325.85 182.775 1333.49 173.346 1333.49C163.916 1333.49 156.261 1325.85 156.261 1316.43ZM158.396 621.752C158.396 613.512 165.095 606.823 173.345 606.823C181.596 606.823 188.295 613.512 188.295 621.752C188.295 629.99 181.596 636.682 173.345 636.682C165.095 636.682 158.396 629.99 158.396 621.752ZM160.532 1393.62C160.532 1386.55 166.274 1380.82 173.346 1380.82C180.418 1380.82 186.159 1386.55 186.159 1393.62C186.159 1400.68 180.418 1406.41 173.346 1406.41C166.274 1406.41 160.532 1400.68 160.532 1393.62ZM160.532 1547.99C160.532 1540.93 166.274 1535.19 173.346 1535.19C180.418 1535.19 186.159 1540.93 186.159 1547.99C186.159 1555.05 180.418 1560.78 173.346 1560.78C166.274 1560.78 160.532 1555.05 160.532 1547.99ZM162.667 1239.25C162.667 1233.36 167.452 1228.58 173.346 1228.58C179.239 1228.58 184.023 1233.36 184.023 1239.25C184.023 1245.13 179.239 1249.91 173.346 1249.91C167.452 1249.91 162.667 1245.13 162.667 1239.25ZM162.667 1162.06C162.667 1156.17 167.452 1151.4 173.346 1151.4C179.239 1151.4 184.023 1156.17 184.023 1162.06C184.023 1167.95 179.239 1172.72 173.346 1172.72C167.452 1172.72 162.667 1167.95 162.667 1162.06ZM164.803 544.565C164.803 539.856 168.631 536.035 173.345 536.035C178.06 536.035 181.888 539.856 181.888 544.565C181.888 549.274 178.06 553.095 173.345 553.095C168.631 553.095 164.803 549.274 164.803 544.565ZM164.803 467.378C164.803 462.672 168.631 458.848 173.345 458.848C178.06 458.848 181.888 462.672 181.888 467.378C181.888 472.087 178.06 475.911 173.345 475.911C168.631 475.911 164.803 472.087 164.803 467.378ZM164.803 390.194C164.803 385.485 168.631 381.664 173.345 381.664C178.06 381.664 181.888 385.485 181.888 390.194C181.888 394.903 178.06 398.724 173.345 398.724C168.631 398.724 164.803 394.903 164.803 390.194ZM166.939 1779.55C166.939 1776.02 169.81 1773.15 173.346 1773.15C176.882 1773.15 179.752 1776.02 179.752 1779.55C179.752 1783.08 176.882 1785.94 173.346 1785.94C169.81 1785.94 166.939 1783.08 166.939 1779.55ZM166.938 235.823C166.938 232.291 169.809 229.424 173.345 229.424C176.881 229.424 179.752 232.291 179.752 235.823C179.752 239.351 176.881 242.219 173.345 242.219C169.809 242.219 166.938 239.351 166.938 235.823ZM166.939 698.936C166.939 695.405 169.809 692.541 173.345 692.541C176.881 692.541 179.752 695.405 179.752 698.936C179.752 702.468 176.881 705.335 173.346 705.335C169.809 705.335 166.939 702.468 166.939 698.936ZM169.074 158.636C169.074 156.281 170.988 154.371 173.345 154.371C175.703 154.371 177.617 156.281 177.617 158.636C177.617 160.99 175.703 162.901 173.345 162.901C170.988 162.901 169.074 160.99 169.074 158.636ZM169.074 1470.8C169.074 1468.45 170.988 1466.54 173.346 1466.54C175.703 1466.54 177.617 1468.45 177.617 1470.8C177.617 1473.16 175.703 1475.07 173.346 1475.07C170.988 1475.07 169.074 1473.16 169.074 1470.8ZM73.8592 1007.69C73.8592 993.565 85.3424 982.096 99.4864 982.096C113.63 982.096 125.114 993.565 125.114 1007.69C125.114 1021.81 113.63 1033.28 99.4864 1033.28C85.3424 1033.28 73.8592 1021.81 73.8592 1007.69ZM78.1304 1162.06C78.1304 1150.29 87.6995 1140.74 99.4864 1140.74C111.273 1140.74 120.842 1150.29 120.842 1162.06C120.842 1173.83 111.273 1183.39 99.4864 1183.39C87.6995 1183.39 78.1304 1173.83 78.1304 1162.06ZM80.2658 1239.25C80.2658 1228.65 88.8784 1220.05 99.4864 1220.05C110.094 1220.05 118.707 1228.65 118.707 1239.25C118.707 1249.84 110.094 1258.44 99.4864 1258.44C88.8784 1258.44 80.2658 1249.84 80.2658 1239.25ZM80.2658 930.495C80.2658 919.903 88.8784 911.301 99.4864 911.301C110.094 911.301 118.707 919.903 118.707 930.495C118.707 941.086 110.094 949.689 99.4864 949.689C88.8784 949.689 80.2658 941.086 80.2658 930.495ZM82.4016 853.307C82.4016 843.893 90.0569 836.248 99.4864 836.248C108.916 836.248 116.571 843.893 116.571 853.307C116.571 862.725 108.916 870.37 99.4864 870.37C90.0569 870.37 82.4016 862.725 82.4016 853.307ZM82.4016 1084.87C82.4016 1075.46 90.0569 1067.81 99.4864 1067.81C108.916 1067.81 116.571 1075.46 116.571 1084.87C116.571 1094.29 108.916 1101.94 99.4864 1101.94C90.0569 1101.94 82.4016 1094.29 82.4016 1084.87ZM84.537 698.936C84.537 690.699 91.2355 684.007 99.4864 684.007C107.737 684.007 114.435 690.699 114.435 698.936C114.435 707.177 107.737 713.865 99.4864 713.865C91.2355 713.865 84.537 707.177 84.537 698.936ZM86.6728 1316.43C86.6728 1309.37 92.4144 1303.64 99.4864 1303.64C106.558 1303.64 112.3 1309.37 112.3 1316.43C112.3 1323.49 106.558 1329.23 99.4864 1329.23C92.4144 1329.23 86.6728 1323.49 86.6728 1316.43ZM86.6728 776.124C86.6728 769.06 92.4144 763.329 99.4864 763.329C106.558 763.329 112.3 769.06 112.3 776.124C112.3 783.184 106.558 788.918 99.4864 788.918C92.4144 788.918 86.6728 783.184 86.6728 776.124ZM86.6728 544.565C86.6728 537.502 92.4144 531.771 99.4864 531.771C106.558 531.771 112.3 537.502 112.3 544.565C112.3 551.629 106.558 557.36 99.4864 557.36C92.4144 557.36 86.6728 551.629 86.6728 544.565ZM88.8082 1625.18C88.8082 1619.29 93.593 1614.51 99.4864 1614.51C105.38 1614.51 110.164 1619.29 110.164 1625.18C110.164 1631.06 105.38 1635.84 99.4864 1635.84C93.593 1635.84 88.8082 1631.06 88.8082 1625.18ZM90.944 1547.99C90.944 1543.28 94.7715 1539.46 99.4864 1539.46C104.201 1539.46 108.029 1543.28 108.029 1547.99C108.029 1552.7 104.201 1556.52 99.4864 1556.52C94.7715 1556.52 90.944 1552.7 90.944 1547.99ZM93.0794 621.752C93.0794 618.221 95.9504 615.353 99.4864 615.353C103.022 615.353 105.893 618.221 105.893 621.752C105.893 625.281 103.022 628.148 99.4864 628.148C95.9504 628.148 93.0794 625.281 93.0794 621.752ZM93.0794 313.007C93.0794 309.475 95.9504 306.611 99.4864 306.611C103.022 306.611 105.893 309.475 105.893 313.007C105.893 316.539 103.022 319.406 99.4864 319.406C95.9504 319.406 93.0794 316.539 93.0794 313.007ZM93.0794 1393.62C93.0794 1390.09 95.9504 1387.22 99.4864 1387.22C103.022 1387.22 105.893 1390.09 105.893 1393.62C105.893 1397.15 103.022 1400.02 99.4864 1400.02C95.9504 1400.02 93.0794 1397.15 93.0794 1393.62ZM95.2152 1702.36C95.2152 1700.01 97.129 1698.1 99.4864 1698.1C101.844 1698.1 103.758 1700.01 103.758 1702.36C103.758 1704.72 101.844 1706.63 99.4864 1706.63C97.129 1706.63 95.2152 1704.72 95.2152 1702.36ZM97.3507 1856.73C97.3507 1855.55 98.3079 1854.6 99.4864 1854.6C100.665 1854.6 101.622 1855.55 101.622 1856.73C101.622 1857.91 100.665 1858.87 99.4864 1858.87C98.3079 1858.87 97.3507 1857.91 97.3507 1856.73ZM8.81427e-05 1084.87C8.75253e-05 1070.75 11.4833 1059.28 25.6273 1059.28C39.7713 1059.28 51.2545 1070.75 51.2545 1084.87C51.2545 1099 39.7713 1110.47 25.6273 1110.47C11.4833 1110.47 8.87603e-05 1099 8.81427e-05 1084.87ZM6.40671 1162.06C6.40671 1151.47 15.0193 1142.87 25.6273 1142.87C36.2353 1142.87 44.8475 1151.47 44.8475 1162.06C44.8475 1172.65 36.2353 1181.25 25.6273 1181.25C15.0193 1181.25 6.40671 1172.65 6.40671 1162.06ZM8.5425 1393.62C8.5425 1384.2 16.1978 1376.56 25.6273 1376.56C35.0568 1376.56 42.7121 1384.2 42.7121 1393.62C42.7121 1403.03 35.0568 1410.68 25.6273 1410.68C16.1978 1410.68 8.5425 1403.03 8.5425 1393.62ZM8.54248 853.307C8.54248 843.893 16.1978 836.248 25.6273 836.248C35.0568 836.248 42.7121 843.893 42.7121 853.307C42.7121 862.725 35.0568 870.37 25.6273 870.37C16.1978 870.37 8.54248 862.725 8.54248 853.307ZM8.5425 1316.43C8.5425 1307.02 16.1978 1299.37 25.6273 1299.37C35.0568 1299.37 42.7121 1307.02 42.7121 1316.43C42.7121 1325.85 35.0568 1333.49 25.6273 1333.49C16.1978 1333.49 8.5425 1325.85 8.5425 1316.43ZM8.5425 1239.25C8.5425 1229.83 16.1978 1222.18 25.6273 1222.18C35.0568 1222.18 42.7121 1229.83 42.7121 1239.25C42.7121 1248.66 35.0568 1256.31 25.6273 1256.31C16.1978 1256.31 8.5425 1248.66 8.5425 1239.25ZM8.54248 930.495C8.54248 921.076 16.1978 913.435 25.6273 913.435C35.0568 913.435 42.7121 921.076 42.7121 930.495C42.7121 939.913 35.0568 947.554 25.6273 947.554C16.1978 947.554 8.54248 939.913 8.54248 930.495ZM8.54249 1007.69C8.54249 998.271 16.1978 990.626 25.6273 990.626C35.0568 990.626 42.7121 998.271 42.7121 1007.69C42.7121 1017.1 35.0568 1024.75 25.6273 1024.75C16.1978 1024.75 8.54249 1017.1 8.54249 1007.69ZM12.8137 621.752C12.8137 614.689 18.5553 608.954 25.6273 608.954C32.6993 608.954 38.4409 614.689 38.4409 621.752C38.4409 628.812 32.6993 634.547 25.6273 634.547C18.5553 634.547 12.8137 628.812 12.8137 621.752ZM14.9491 544.565C14.9491 538.679 19.7338 533.901 25.6273 533.901C31.5207 533.901 36.3051 538.679 36.3051 544.565C36.3051 550.452 31.5207 555.229 25.6273 555.229C19.7338 555.229 14.9491 550.452 14.9491 544.565ZM14.9491 698.936C14.9491 693.054 19.7338 688.276 25.6273 688.276C31.5207 688.276 36.3051 693.054 36.3051 698.936C36.3051 704.823 31.5207 709.6 25.6273 709.6C19.7338 709.6 14.9491 704.823 14.9491 698.936ZM17.0849 1470.8C17.0849 1466.1 20.9127 1462.27 25.6273 1462.27C30.3419 1462.27 34.1697 1466.1 34.1697 1470.8C34.1697 1475.51 30.3419 1479.34 25.6273 1479.34C20.9127 1479.34 17.0849 1475.51 17.0849 1470.8ZM17.0849 776.124C17.0849 771.414 20.9127 767.594 25.6273 767.594C30.3418 767.594 34.1697 771.414 34.1697 776.124C34.1697 780.833 30.3418 784.653 25.6273 784.653C20.9127 784.653 17.0849 780.833 17.0849 776.124ZM17.0849 467.378C17.0849 462.672 20.9127 458.848 25.6273 458.848C30.3418 458.848 34.1697 462.672 34.1697 467.378C34.1697 472.087 30.3418 475.911 25.6273 475.911C20.9127 475.911 17.0849 472.087 17.0849 467.378ZM19.2203 1702.36C19.2203 1698.83 22.0913 1695.96 25.6273 1695.96C29.1633 1695.96 32.0339 1698.83 32.0339 1702.36C32.0339 1705.89 29.1633 1708.76 25.6273 1708.76C22.0913 1708.76 19.2203 1705.89 19.2203 1702.36ZM21.3561 158.636C21.3561 156.281 23.2698 154.371 25.6272 154.371C27.9847 154.371 29.8985 156.281 29.8985 158.636C29.8985 160.99 27.9847 162.901 25.6272 162.901C23.2698 162.901 21.3561 160.99 21.3561 158.636ZM21.3561 313.007C21.3561 310.652 23.2698 308.742 25.6273 308.742C27.9847 308.742 29.8985 310.652 29.8985 313.007C29.8985 315.361 27.9847 317.272 25.6273 317.272C23.2698 317.272 21.3561 315.361 21.3561 313.007ZM21.3561 390.194C21.3561 387.84 23.2698 385.929 25.6273 385.929C27.9847 385.929 29.8985 387.84 29.8985 390.194C29.8985 392.549 27.9847 394.459 25.6273 394.459C23.2698 394.459 21.3561 392.549 21.3561 390.194Z" fill="#C4C4C4"/>
</svg>
