<svg width="272" height="85" viewBox="0 0 272 85" fill="none" xmlns="http://www.w3.org/2000/svg">
<path d="M17.8469 48.3475H3.32252C1.48749 48.3475 0 46.86 0 45.0249C0 43.1899 1.48749 41.7024 3.32252 41.7024H17.8469C19.682 41.7024 21.1695 43.1899 21.1695 45.0249C21.1695 46.86 19.682 48.3475 17.8469 48.3475Z" fill="white"/>
<path d="M25.2412 41.0553C23.4062 41.0553 21.9187 39.5678 21.9187 37.7328V34.9814H3.32252L0 31.6589V17.1348L3.32252 13.8123H19.1673C21.0023 13.8123 22.4898 15.2997 22.4898 17.1348C22.4898 18.9698 21.0023 20.4573 19.1673 20.4573H6.64504V28.3363H25.2412L28.5637 31.6589V37.7328C28.5637 39.5678 27.0762 41.0553 25.2412 41.0553Z" fill="white"/>
<path d="M40.3767 41.0553C38.5416 41.0553 37.0541 39.5678 37.0541 37.7328V17.1348C37.0541 15.2997 38.5416 13.8123 40.3767 13.8123C42.2117 13.8123 43.6992 15.2997 43.6992 17.1348V37.7328C43.6992 39.5678 42.2117 41.0553 40.3767 41.0553Z" fill="white"/>
<path d="M61.679 48.4495H47.9467C46.1117 48.4495 44.6242 46.9621 44.6242 45.127C44.6242 43.292 46.1117 41.8045 47.9467 41.8045H58.3565V17.1348C58.3565 15.2997 59.844 13.8123 61.679 13.8123C63.5141 13.8123 65.0016 15.2997 65.0016 17.1348V45.127L61.679 48.4495Z" fill="white"/>
<path d="M172.921 41.0553C171.086 41.0553 169.599 39.5678 169.599 37.7328V17.1348C169.599 15.2997 171.086 13.8123 172.921 13.8123C174.756 13.8123 176.244 15.2997 176.244 17.1348V37.7328C176.244 39.5678 174.756 41.0553 172.921 41.0553Z" fill="white"/>
<path d="M194.223 48.4495H180.491C178.656 48.4495 177.169 46.9621 177.169 45.127C177.169 43.292 178.656 41.8045 180.491 41.8045H190.901V17.1348C190.901 15.2997 192.388 13.8123 194.223 13.8123C196.058 13.8123 197.546 15.2997 197.546 17.1348V45.127L194.223 48.4495Z" fill="white"/>
<path d="M76.7666 48.4495C74.9316 48.4495 73.4441 46.9621 73.4441 45.127V17.1348L76.7666 13.8123H91.291C93.1257 13.8123 94.6135 15.2997 94.6135 17.1348C94.6135 18.9698 93.1257 20.4573 91.291 20.4573H80.0891V45.127C80.0891 46.9621 78.6016 48.4495 76.7666 48.4495Z" fill="white"/>
<path d="M106.383 48.4495C104.548 48.4495 103.061 46.9621 103.061 45.127V17.1348L106.383 13.8123H120.908C122.743 13.8123 124.23 15.2997 124.23 17.1348C124.23 18.9698 122.743 20.4573 120.908 20.4573H109.706V45.127C109.706 46.9621 108.218 48.4495 106.383 48.4495Z" fill="white"/>
<path d="M136 41.8715C134.165 41.8715 132.677 40.384 132.677 38.549V16.8692L136 13.5467H150.524C152.359 13.5467 153.847 15.0342 153.847 16.8692C153.847 18.7042 152.359 20.1917 150.524 20.1917H139.323V38.549C139.323 40.384 137.835 41.8715 136 41.8715Z" fill="white"/>
<path d="M157.829 48.5117H143.304C141.469 48.5117 139.982 47.0242 139.982 45.1891C139.982 43.3541 141.469 41.8666 143.304 41.8666H154.506V23.5097C154.506 21.6746 155.993 20.1871 157.829 20.1871C159.664 20.1871 161.151 21.6746 161.151 23.5097V45.1891L157.829 48.5117Z" fill="white"/>
<path d="M209.311 48.2644C207.476 48.2644 205.989 46.7769 205.989 44.9418V16.8692L209.311 13.5467H223.836C225.671 13.5467 227.158 15.0342 227.158 16.8692C227.158 18.7042 225.671 20.1917 223.836 20.1917H212.634V44.9418C212.634 46.7769 211.146 48.2644 209.311 48.2644Z" fill="white"/>
<path d="M231.092 48.5117C229.257 48.5117 227.77 47.0242 227.77 45.1891V23.5097C227.77 21.6746 229.257 20.1871 231.092 20.1871C232.927 20.1871 234.415 21.6746 234.415 23.5097V45.1891C234.415 47.0242 232.927 48.5117 231.092 48.5117Z" fill="white"/>
<path d="M246.232 41.8715C244.397 41.8715 242.91 40.384 242.91 38.549V16.8692L246.232 13.5467H258.431C260.266 13.5467 261.754 15.0342 261.754 16.8692C261.754 18.7042 260.266 20.1917 258.431 20.1917H249.555V38.549C249.555 40.384 248.068 41.8715 246.232 41.8715Z" fill="white"/>
<path d="M268.062 48.4497H253.537C251.702 48.4497 250.214 46.9622 250.214 45.1272C250.214 43.2921 251.702 41.8046 253.537 41.8046H264.739V3.32252C264.739 1.48749 266.227 0 268.062 0C269.897 0 271.384 1.48749 271.384 3.32252V45.1272L268.062 48.4497Z" fill="white"/>
<path d="M29.2229 81.415C29.2229 83.2497 27.7354 84.7375 25.9003 84.7375C24.0653 84.7375 22.5778 83.2497 22.5778 81.415C22.5778 79.5799 24.0653 78.0924 25.9003 78.0924C27.7354 78.0924 29.2229 79.5799 29.2229 81.415Z" fill="white"/>
<path d="M44.3635 74.5088C44.3635 76.3439 42.876 77.8314 41.041 77.8314C39.206 77.8314 37.7181 76.3439 37.7181 74.5088C37.7181 72.6738 39.206 71.1863 41.041 71.1863C42.876 71.1863 44.3635 72.6738 44.3635 74.5088Z" fill="white"/>
<path d="M65.7456 71.8526C65.7456 73.6877 64.2581 75.1751 62.4231 75.1751C60.5881 75.1751 59.1006 73.6877 59.1006 71.8526C59.1006 70.0179 60.5881 68.5301 62.4231 68.5301C64.2581 68.5301 65.7456 70.0179 65.7456 71.8526Z" fill="white"/>
<path d="M80.7531 78.2275C80.7531 80.0622 79.2656 81.55 77.4306 81.55C75.5956 81.55 74.1081 80.0622 74.1081 78.2275C74.1081 76.3925 75.5956 74.905 77.4306 74.905C79.2656 74.905 80.7531 76.3925 80.7531 78.2275Z" fill="white"/>
<path d="M95.3623 78.2275C95.3623 80.0622 93.8748 81.55 92.0397 81.55C90.2047 81.55 88.7172 80.0622 88.7172 78.2275C88.7172 76.3925 90.2047 74.905 92.0397 74.905C93.8748 74.905 95.3623 76.3925 95.3623 78.2275Z" fill="white"/>
<path d="M110.37 81.415C110.37 83.2497 108.882 84.7375 107.047 84.7375C105.212 84.7375 103.725 83.2497 103.725 81.415C103.725 79.5799 105.212 78.0924 107.047 78.0924C108.882 78.0924 110.37 79.5799 110.37 81.415Z" fill="white"/>
<path d="M125.245 65.7433C125.245 67.578 123.757 69.0659 121.922 69.0659C120.087 69.0659 118.599 67.578 118.599 65.7433C118.599 63.9083 120.087 62.4208 121.922 62.4208C123.757 62.4208 125.245 63.9083 125.245 65.7433Z" fill="white"/>
<path d="M139.986 60.4309C139.986 62.266 138.499 63.7535 136.664 63.7535C134.829 63.7535 133.341 62.266 133.341 60.4309C133.341 58.5959 134.829 57.1084 136.664 57.1084C138.499 57.1084 139.986 58.5959 139.986 60.4309Z" fill="white"/>
<path d="M161.767 63.884C161.767 65.719 160.28 67.2065 158.445 67.2065C156.61 67.2065 155.122 65.719 155.122 63.884C155.122 62.049 156.61 60.5615 158.445 60.5615C160.28 60.5615 161.767 62.049 161.767 63.884Z" fill="white"/>
<path d="M176.908 58.306C176.908 60.141 175.42 61.6285 173.585 61.6285C171.75 61.6285 170.263 60.141 170.263 58.306C170.263 56.4709 171.75 54.9834 173.585 54.9834C175.42 54.9834 176.908 56.4709 176.908 58.306Z" fill="white"/>
<path d="M198.29 64.9465C198.29 66.7815 196.803 68.269 194.968 68.269C193.133 68.269 191.645 66.7815 191.645 64.9465C191.645 63.1115 193.133 61.624 194.968 61.624C196.803 61.624 198.29 63.1115 198.29 64.9465Z" fill="white"/>
<path d="M213.298 64.9465C213.298 66.7815 211.81 68.269 209.975 68.269C208.14 68.269 206.653 66.7815 206.653 64.9465C206.653 63.1115 208.14 61.624 209.975 61.624C211.81 61.624 213.298 63.1115 213.298 64.9465Z" fill="white"/>
<path d="M235.079 81.415C235.079 83.2497 233.591 84.7375 231.756 84.7375C229.921 84.7375 228.434 83.2497 228.434 81.415C228.434 79.5799 229.921 78.0924 231.756 78.0924C233.591 78.0924 235.079 79.5799 235.079 81.415Z" fill="white"/>
<path d="M250.219 81.415C250.219 83.2497 248.732 84.7375 246.896 84.7375C245.061 84.7375 243.574 83.2497 243.574 81.415C243.574 79.5799 245.061 78.0924 246.896 78.0924C248.732 78.0924 250.219 79.5799 250.219 81.415Z" fill="white"/>
<path d="M272 75.8369C272 77.6719 270.513 79.1594 268.678 79.1594C266.842 79.1594 265.355 77.6719 265.355 75.8369C265.355 74.0019 266.842 72.5144 268.678 72.5144C270.513 72.5144 272 74.0019 272 75.8369Z" fill="white"/>
<path d="M7.30904 59.1028C7.30904 60.9375 5.82155 62.4254 3.98652 62.4254C2.15149 62.4254 0.664001 60.9375 0.664001 59.1028C0.664001 57.2678 2.15149 55.7803 3.98652 55.7803C5.82155 55.7803 7.30904 57.2678 7.30904 59.1028Z" fill="white"/>
</svg>
